<mxfile host="app.diagrams.net" agent="Mozilla/5.0 (Windows NT 10.0; Win64; x64) AppleWebKit/537.36 (KHTML, like Gecko) Chrome/131.0.0.0 Safari/537.36" version="25.0.3" pages="2">
  <diagram name="Page-1" id="WmWwFpZ_iw0O8V5TmGVm">
    <mxGraphModel dx="873" dy="1917" grid="1" gridSize="10" guides="1" tooltips="1" connect="1" arrows="1" fold="1" page="1" pageScale="1" pageWidth="4681" pageHeight="3300" math="0" shadow="0">
      <root>
        <mxCell id="0" />
        <mxCell id="1" parent="0" />
        <mxCell id="MVi8cVUKgiiV1papQBs0-2" value="pilihMenu(Scanner sc, String searchMahasiswa)" style="strokeWidth=2;html=1;shape=mxgraph.flowchart.start_1;whiteSpace=wrap;" parent="1" vertex="1">
          <mxGeometry x="1319" y="140" width="180" height="80" as="geometry" />
        </mxCell>
        <mxCell id="9UBLBmkFSBw5mUVlvuhj-89" value="" style="edgeStyle=orthogonalEdgeStyle;rounded=0;orthogonalLoop=1;jettySize=auto;html=1;" parent="1" source="MVi8cVUKgiiV1papQBs0-4" target="MVi8cVUKgiiV1papQBs0-48" edge="1">
          <mxGeometry relative="1" as="geometry" />
        </mxCell>
        <mxCell id="MVi8cVUKgiiV1papQBs0-4" value="TambahData()" style="strokeWidth=2;html=1;shape=mxgraph.flowchart.start_1;whiteSpace=wrap;" parent="1" vertex="1">
          <mxGeometry x="2070" y="145" width="180" height="80" as="geometry" />
        </mxCell>
        <mxCell id="MVi8cVUKgiiV1papQBs0-5" style="edgeStyle=orthogonalEdgeStyle;rounded=0;orthogonalLoop=1;jettySize=auto;html=1;exitX=0.5;exitY=1;exitDx=0;exitDy=0;entryX=0.5;entryY=0;entryDx=0;entryDy=0;" parent="1" source="MVi8cVUKgiiV1papQBs0-6" target="MVi8cVUKgiiV1papQBs0-8" edge="1">
          <mxGeometry relative="1" as="geometry" />
        </mxCell>
        <mxCell id="MVi8cVUKgiiV1papQBs0-6" value="while(true)" style="rhombus;whiteSpace=wrap;html=1;" parent="1" vertex="1">
          <mxGeometry x="1344" y="280" width="130" height="100" as="geometry" />
        </mxCell>
        <mxCell id="MVi8cVUKgiiV1papQBs0-7" style="edgeStyle=orthogonalEdgeStyle;rounded=0;orthogonalLoop=1;jettySize=auto;html=1;exitX=0.5;exitY=1;exitDx=0;exitDy=0;entryX=0.5;entryY=0;entryDx=0;entryDy=0;" parent="1" source="MVi8cVUKgiiV1papQBs0-8" target="MVi8cVUKgiiV1papQBs0-10" edge="1">
          <mxGeometry relative="1" as="geometry" />
        </mxCell>
        <mxCell id="MVi8cVUKgiiV1papQBs0-8" value="output &quot;=== SIstem Pemantauan KRS Mahasiswa ===&quot;" style="shape=parallelogram;html=1;strokeWidth=2;perimeter=parallelogramPerimeter;whiteSpace=wrap;rounded=1;arcSize=0;size=0.03125;" parent="1" vertex="1">
          <mxGeometry x="1289" y="410" width="240" height="60" as="geometry" />
        </mxCell>
        <mxCell id="MVi8cVUKgiiV1papQBs0-9" style="edgeStyle=orthogonalEdgeStyle;rounded=0;orthogonalLoop=1;jettySize=auto;html=1;exitX=0.5;exitY=1;exitDx=0;exitDy=0;entryX=0.5;entryY=0;entryDx=0;entryDy=0;" parent="1" source="MVi8cVUKgiiV1papQBs0-10" target="MVi8cVUKgiiV1papQBs0-12" edge="1">
          <mxGeometry relative="1" as="geometry" />
        </mxCell>
        <mxCell id="MVi8cVUKgiiV1papQBs0-10" value="output &quot;Pilihan Menu KRS&quot;" style="shape=parallelogram;html=1;strokeWidth=2;perimeter=parallelogramPerimeter;whiteSpace=wrap;rounded=1;arcSize=0;size=0.03125;" parent="1" vertex="1">
          <mxGeometry x="1289" y="510" width="240" height="60" as="geometry" />
        </mxCell>
        <mxCell id="MVi8cVUKgiiV1papQBs0-11" style="edgeStyle=orthogonalEdgeStyle;rounded=0;orthogonalLoop=1;jettySize=auto;html=1;exitX=0.5;exitY=1;exitDx=0;exitDy=0;entryX=0.5;entryY=0;entryDx=0;entryDy=0;" parent="1" source="MVi8cVUKgiiV1papQBs0-12" target="MVi8cVUKgiiV1papQBs0-14" edge="1">
          <mxGeometry relative="1" as="geometry" />
        </mxCell>
        <mxCell id="MVi8cVUKgiiV1papQBs0-12" value="input pilihan" style="shape=parallelogram;html=1;strokeWidth=2;perimeter=parallelogramPerimeter;whiteSpace=wrap;rounded=1;arcSize=0;size=0.03125;" parent="1" vertex="1">
          <mxGeometry x="1289" y="600" width="240" height="60" as="geometry" />
        </mxCell>
        <mxCell id="MVi8cVUKgiiV1papQBs0-13" style="edgeStyle=orthogonalEdgeStyle;rounded=0;orthogonalLoop=1;jettySize=auto;html=1;exitX=0.5;exitY=1;exitDx=0;exitDy=0;entryX=0.5;entryY=0;entryDx=0;entryDy=0;" parent="1" source="MVi8cVUKgiiV1papQBs0-14" target="MVi8cVUKgiiV1papQBs0-19" edge="1">
          <mxGeometry relative="1" as="geometry" />
        </mxCell>
        <mxCell id="MVi8cVUKgiiV1papQBs0-14" value="switch(pilihan)" style="shape=parallelogram;html=1;strokeWidth=2;perimeter=parallelogramPerimeter;whiteSpace=wrap;rounded=1;arcSize=0;size=0;" parent="1" vertex="1">
          <mxGeometry x="1331.5" y="700" width="155" height="30" as="geometry" />
        </mxCell>
        <mxCell id="MVi8cVUKgiiV1papQBs0-15" style="edgeStyle=orthogonalEdgeStyle;rounded=0;orthogonalLoop=1;jettySize=auto;html=1;exitX=0.5;exitY=1;exitDx=0;exitDy=0;entryX=0.5;entryY=0;entryDx=0;entryDy=0;" parent="1" source="MVi8cVUKgiiV1papQBs0-19" target="MVi8cVUKgiiV1papQBs0-24" edge="1">
          <mxGeometry relative="1" as="geometry" />
        </mxCell>
        <mxCell id="MVi8cVUKgiiV1papQBs0-16" value="False" style="edgeLabel;html=1;align=center;verticalAlign=middle;resizable=0;points=[];" parent="MVi8cVUKgiiV1papQBs0-15" vertex="1" connectable="0">
          <mxGeometry x="-0.0952" y="-2" relative="1" as="geometry">
            <mxPoint y="-1" as="offset" />
          </mxGeometry>
        </mxCell>
        <mxCell id="An7cOaeQkfelgaiPVGqu-54" style="edgeStyle=orthogonalEdgeStyle;rounded=0;orthogonalLoop=1;jettySize=auto;html=1;exitX=0;exitY=0.5;exitDx=0;exitDy=0;entryX=1;entryY=0.5;entryDx=0;entryDy=0;" parent="1" source="MVi8cVUKgiiV1papQBs0-19" target="MVi8cVUKgiiV1papQBs0-37" edge="1">
          <mxGeometry relative="1" as="geometry" />
        </mxCell>
        <mxCell id="SnavFXWCy11FegL9XH4y-15" value="True" style="edgeLabel;html=1;align=center;verticalAlign=middle;resizable=0;points=[];fontSize=12;" vertex="1" connectable="0" parent="An7cOaeQkfelgaiPVGqu-54">
          <mxGeometry x="-0.0868" y="-4" relative="1" as="geometry">
            <mxPoint as="offset" />
          </mxGeometry>
        </mxCell>
        <mxCell id="MVi8cVUKgiiV1papQBs0-19" value="case 1" style="strokeWidth=2;rhombus;whiteSpace=wrap;html=1;" parent="1" vertex="1">
          <mxGeometry x="1344" y="746.25" width="130" height="100" as="geometry" />
        </mxCell>
        <mxCell id="MVi8cVUKgiiV1papQBs0-20" style="edgeStyle=orthogonalEdgeStyle;rounded=0;orthogonalLoop=1;jettySize=auto;html=1;exitX=0.5;exitY=1;exitDx=0;exitDy=0;entryX=0.5;entryY=0;entryDx=0;entryDy=0;" parent="1" source="MVi8cVUKgiiV1papQBs0-24" target="MVi8cVUKgiiV1papQBs0-29" edge="1">
          <mxGeometry relative="1" as="geometry" />
        </mxCell>
        <mxCell id="MVi8cVUKgiiV1papQBs0-21" value="False" style="edgeLabel;html=1;align=center;verticalAlign=middle;resizable=0;points=[];" parent="MVi8cVUKgiiV1papQBs0-20" vertex="1" connectable="0">
          <mxGeometry x="-0.381" y="1" relative="1" as="geometry">
            <mxPoint y="1" as="offset" />
          </mxGeometry>
        </mxCell>
        <mxCell id="An7cOaeQkfelgaiPVGqu-53" style="edgeStyle=orthogonalEdgeStyle;rounded=0;orthogonalLoop=1;jettySize=auto;html=1;exitX=0;exitY=0.5;exitDx=0;exitDy=0;entryX=1;entryY=0.5;entryDx=0;entryDy=0;" parent="1" source="MVi8cVUKgiiV1papQBs0-24" target="MVi8cVUKgiiV1papQBs0-38" edge="1">
          <mxGeometry relative="1" as="geometry" />
        </mxCell>
        <mxCell id="SnavFXWCy11FegL9XH4y-13" value="True" style="edgeLabel;html=1;align=center;verticalAlign=middle;resizable=0;points=[];fontSize=12;" vertex="1" connectable="0" parent="An7cOaeQkfelgaiPVGqu-53">
          <mxGeometry x="0.0271" y="2" relative="1" as="geometry">
            <mxPoint x="1" as="offset" />
          </mxGeometry>
        </mxCell>
        <mxCell id="MVi8cVUKgiiV1papQBs0-24" value="case 2" style="strokeWidth=2;rhombus;whiteSpace=wrap;html=1;" parent="1" vertex="1">
          <mxGeometry x="1344" y="891.25" width="130" height="100" as="geometry" />
        </mxCell>
        <mxCell id="MVi8cVUKgiiV1papQBs0-25" style="edgeStyle=orthogonalEdgeStyle;rounded=0;orthogonalLoop=1;jettySize=auto;html=1;exitX=0.5;exitY=1;exitDx=0;exitDy=0;entryX=0.5;entryY=0;entryDx=0;entryDy=0;" parent="1" source="MVi8cVUKgiiV1papQBs0-29" target="MVi8cVUKgiiV1papQBs0-33" edge="1">
          <mxGeometry relative="1" as="geometry" />
        </mxCell>
        <mxCell id="MVi8cVUKgiiV1papQBs0-26" value="False" style="edgeLabel;html=1;align=center;verticalAlign=middle;resizable=0;points=[];" parent="MVi8cVUKgiiV1papQBs0-25" vertex="1" connectable="0">
          <mxGeometry x="-0.1218" y="-1" relative="1" as="geometry">
            <mxPoint as="offset" />
          </mxGeometry>
        </mxCell>
        <mxCell id="An7cOaeQkfelgaiPVGqu-52" style="edgeStyle=orthogonalEdgeStyle;rounded=0;orthogonalLoop=1;jettySize=auto;html=1;exitX=0;exitY=0.5;exitDx=0;exitDy=0;entryX=1;entryY=0.5;entryDx=0;entryDy=0;" parent="1" source="MVi8cVUKgiiV1papQBs0-29" target="MVi8cVUKgiiV1papQBs0-39" edge="1">
          <mxGeometry relative="1" as="geometry" />
        </mxCell>
        <mxCell id="SnavFXWCy11FegL9XH4y-14" value="True" style="edgeLabel;html=1;align=center;verticalAlign=middle;resizable=0;points=[];fontSize=12;" vertex="1" connectable="0" parent="An7cOaeQkfelgaiPVGqu-52">
          <mxGeometry x="-0.0658" y="1" relative="1" as="geometry">
            <mxPoint as="offset" />
          </mxGeometry>
        </mxCell>
        <mxCell id="MVi8cVUKgiiV1papQBs0-29" value="case 3" style="strokeWidth=2;rhombus;whiteSpace=wrap;html=1;" parent="1" vertex="1">
          <mxGeometry x="1344" y="1032.5" width="130" height="100" as="geometry" />
        </mxCell>
        <mxCell id="MVi8cVUKgiiV1papQBs0-30" style="edgeStyle=orthogonalEdgeStyle;rounded=0;orthogonalLoop=1;jettySize=auto;html=1;exitX=0.5;exitY=1;exitDx=0;exitDy=0;entryX=0.5;entryY=0;entryDx=0;entryDy=0;" parent="1" source="MVi8cVUKgiiV1papQBs0-33" target="MVi8cVUKgiiV1papQBs0-36" edge="1">
          <mxGeometry relative="1" as="geometry" />
        </mxCell>
        <mxCell id="MVi8cVUKgiiV1papQBs0-31" value="False" style="edgeLabel;html=1;align=center;verticalAlign=middle;resizable=0;points=[];" parent="MVi8cVUKgiiV1papQBs0-30" vertex="1" connectable="0">
          <mxGeometry x="-0.1494" relative="1" as="geometry">
            <mxPoint as="offset" />
          </mxGeometry>
        </mxCell>
        <mxCell id="MVi8cVUKgiiV1papQBs0-32" style="edgeStyle=orthogonalEdgeStyle;rounded=0;orthogonalLoop=1;jettySize=auto;html=1;exitX=0;exitY=0.5;exitDx=0;exitDy=0;entryX=0.5;entryY=0;entryDx=0;entryDy=0;" parent="1" source="MVi8cVUKgiiV1papQBs0-33" target="MVi8cVUKgiiV1papQBs0-44" edge="1">
          <mxGeometry relative="1" as="geometry" />
        </mxCell>
        <mxCell id="An7cOaeQkfelgaiPVGqu-37" value="TRUE" style="edgeLabel;html=1;align=center;verticalAlign=middle;resizable=0;points=[];" parent="MVi8cVUKgiiV1papQBs0-32" vertex="1" connectable="0">
          <mxGeometry x="-0.2877" y="-4" relative="1" as="geometry">
            <mxPoint as="offset" />
          </mxGeometry>
        </mxCell>
        <mxCell id="MVi8cVUKgiiV1papQBs0-33" value="case 4" style="strokeWidth=2;rhombus;whiteSpace=wrap;html=1;" parent="1" vertex="1">
          <mxGeometry x="1344" y="1170" width="130" height="100" as="geometry" />
        </mxCell>
        <mxCell id="MVi8cVUKgiiV1papQBs0-34" value="" style="edgeStyle=orthogonalEdgeStyle;rounded=0;orthogonalLoop=1;jettySize=auto;html=1;" parent="1" source="MVi8cVUKgiiV1papQBs0-36" target="MVi8cVUKgiiV1papQBs0-46" edge="1">
          <mxGeometry relative="1" as="geometry" />
        </mxCell>
        <mxCell id="MVi8cVUKgiiV1papQBs0-35" value="True" style="edgeLabel;html=1;align=center;verticalAlign=middle;resizable=0;points=[];" parent="MVi8cVUKgiiV1papQBs0-34" vertex="1" connectable="0">
          <mxGeometry x="-0.0972" relative="1" as="geometry">
            <mxPoint x="-1" as="offset" />
          </mxGeometry>
        </mxCell>
        <mxCell id="MVi8cVUKgiiV1papQBs0-36" value="Default" style="strokeWidth=2;rhombus;whiteSpace=wrap;html=1;" parent="1" vertex="1">
          <mxGeometry x="1344" y="1300" width="130" height="100" as="geometry" />
        </mxCell>
        <mxCell id="SnavFXWCy11FegL9XH4y-7" style="edgeStyle=none;curved=1;rounded=0;orthogonalLoop=1;jettySize=auto;html=1;exitX=0;exitY=0.5;exitDx=0;exitDy=0;entryX=1;entryY=0.5;entryDx=0;entryDy=0;fontSize=12;startSize=8;endSize=8;" edge="1" parent="1" source="MVi8cVUKgiiV1papQBs0-37" target="SnavFXWCy11FegL9XH4y-1">
          <mxGeometry relative="1" as="geometry" />
        </mxCell>
        <mxCell id="MVi8cVUKgiiV1papQBs0-37" value="" style="verticalLabelPosition=bottom;verticalAlign=top;html=1;shape=process;whiteSpace=wrap;rounded=1;size=0.16666666666666666;arcSize=0;" parent="1" vertex="1">
          <mxGeometry x="1107" y="761.25" width="186" height="70" as="geometry" />
        </mxCell>
        <mxCell id="SnavFXWCy11FegL9XH4y-6" style="edgeStyle=none;curved=1;rounded=0;orthogonalLoop=1;jettySize=auto;html=1;exitX=0;exitY=0.5;exitDx=0;exitDy=0;entryX=1;entryY=0.5;entryDx=0;entryDy=0;fontSize=12;startSize=8;endSize=8;" edge="1" parent="1" source="MVi8cVUKgiiV1papQBs0-38" target="SnavFXWCy11FegL9XH4y-2">
          <mxGeometry relative="1" as="geometry" />
        </mxCell>
        <mxCell id="MVi8cVUKgiiV1papQBs0-38" value="" style="verticalLabelPosition=bottom;verticalAlign=top;html=1;shape=process;whiteSpace=wrap;rounded=1;size=0.16666666666666666;arcSize=0;" parent="1" vertex="1">
          <mxGeometry x="1112" y="902" width="181" height="80" as="geometry" />
        </mxCell>
        <mxCell id="SnavFXWCy11FegL9XH4y-8" style="edgeStyle=none;curved=1;rounded=0;orthogonalLoop=1;jettySize=auto;html=1;exitX=0;exitY=0.5;exitDx=0;exitDy=0;entryX=1;entryY=0.5;entryDx=0;entryDy=0;fontSize=12;startSize=8;endSize=8;" edge="1" parent="1" source="MVi8cVUKgiiV1papQBs0-39" target="SnavFXWCy11FegL9XH4y-3">
          <mxGeometry relative="1" as="geometry" />
        </mxCell>
        <mxCell id="MVi8cVUKgiiV1papQBs0-39" value="" style="verticalLabelPosition=bottom;verticalAlign=top;html=1;shape=process;whiteSpace=wrap;rounded=1;size=0.16666666666666666;arcSize=0;" parent="1" vertex="1">
          <mxGeometry x="1111" y="1043.75" width="180" height="77.5" as="geometry" />
        </mxCell>
        <mxCell id="MVi8cVUKgiiV1papQBs0-40" value="END" style="strokeWidth=2;html=1;shape=mxgraph.flowchart.terminator;whiteSpace=wrap;" parent="1" vertex="1">
          <mxGeometry x="1331.5" y="1490" width="100" height="60" as="geometry" />
        </mxCell>
        <mxCell id="MVi8cVUKgiiV1papQBs0-41" value="TambahData(sc)" style="text;html=1;align=center;verticalAlign=middle;resizable=0;points=[];autosize=1;strokeColor=none;fillColor=none;" parent="1" vertex="1">
          <mxGeometry x="1141" y="781.25" width="110" height="30" as="geometry" />
        </mxCell>
        <mxCell id="MVi8cVUKgiiV1papQBs0-42" value="TampilData(sc, searchMahasiswa)" style="text;html=1;align=center;verticalAlign=middle;resizable=0;points=[];autosize=1;strokeColor=none;fillColor=none;" parent="1" vertex="1">
          <mxGeometry x="1096" y="930" width="210" height="30" as="geometry" />
        </mxCell>
        <mxCell id="MVi8cVUKgiiV1papQBs0-43" value="AnalisisData()" style="text;html=1;align=center;verticalAlign=middle;resizable=0;points=[];autosize=1;strokeColor=none;fillColor=none;" parent="1" vertex="1">
          <mxGeometry x="1144" y="1067.5" width="100" height="30" as="geometry" />
        </mxCell>
        <mxCell id="MVi8cVUKgiiV1papQBs0-44" value="output &quot;Terima Kasih!&quot;" style="shape=parallelogram;html=1;strokeWidth=2;perimeter=parallelogramPerimeter;whiteSpace=wrap;rounded=1;arcSize=0;size=0.03125;" parent="1" vertex="1">
          <mxGeometry x="1070" y="1300" width="240" height="60" as="geometry" />
        </mxCell>
        <mxCell id="MVi8cVUKgiiV1papQBs0-45" style="edgeStyle=orthogonalEdgeStyle;rounded=0;orthogonalLoop=1;jettySize=auto;html=1;exitX=0.5;exitY=1;exitDx=0;exitDy=0;entryX=0;entryY=0.5;entryDx=0;entryDy=0;entryPerimeter=0;" parent="1" source="MVi8cVUKgiiV1papQBs0-44" target="MVi8cVUKgiiV1papQBs0-40" edge="1">
          <mxGeometry relative="1" as="geometry" />
        </mxCell>
        <mxCell id="MVi8cVUKgiiV1papQBs0-46" value="output &quot;Pilihan Menu tidak valid&quot;" style="shape=parallelogram;html=1;strokeWidth=2;perimeter=parallelogramPerimeter;whiteSpace=wrap;rounded=1;arcSize=0;size=0.03125;" parent="1" vertex="1">
          <mxGeometry x="1550" y="1320" width="240" height="60" as="geometry" />
        </mxCell>
        <mxCell id="9UBLBmkFSBw5mUVlvuhj-90" style="edgeStyle=orthogonalEdgeStyle;rounded=0;orthogonalLoop=1;jettySize=auto;html=1;entryX=0.5;entryY=0;entryDx=0;entryDy=0;" parent="1" source="MVi8cVUKgiiV1papQBs0-48" target="MVi8cVUKgiiV1papQBs0-50" edge="1">
          <mxGeometry relative="1" as="geometry" />
        </mxCell>
        <mxCell id="MVi8cVUKgiiV1papQBs0-48" value="output &quot;Tambah Data KRS&quot;" style="shape=parallelogram;html=1;strokeWidth=2;perimeter=parallelogramPerimeter;whiteSpace=wrap;rounded=1;arcSize=0;size=0.03125;" parent="1" vertex="1">
          <mxGeometry x="2050" y="257.5" width="220" height="45" as="geometry" />
        </mxCell>
        <mxCell id="An7cOaeQkfelgaiPVGqu-2" value="" style="edgeStyle=orthogonalEdgeStyle;rounded=0;orthogonalLoop=1;jettySize=auto;html=1;" parent="1" source="MVi8cVUKgiiV1papQBs0-50" target="An7cOaeQkfelgaiPVGqu-1" edge="1">
          <mxGeometry relative="1" as="geometry" />
        </mxCell>
        <mxCell id="MVi8cVUKgiiV1papQBs0-50" value="while(true)" style="rhombus;whiteSpace=wrap;html=1;" parent="1" vertex="1">
          <mxGeometry x="2095" y="325" width="130" height="100" as="geometry" />
        </mxCell>
        <mxCell id="MVi8cVUKgiiV1papQBs0-52" value="" style="edgeStyle=orthogonalEdgeStyle;rounded=0;orthogonalLoop=1;jettySize=auto;html=1;" parent="1" source="MVi8cVUKgiiV1papQBs0-53" target="MVi8cVUKgiiV1papQBs0-77" edge="1">
          <mxGeometry relative="1" as="geometry" />
        </mxCell>
        <mxCell id="MVi8cVUKgiiV1papQBs0-53" value="TampilData()" style="strokeWidth=2;html=1;shape=mxgraph.flowchart.start_1;whiteSpace=wrap;" parent="1" vertex="1">
          <mxGeometry x="2901.5" y="150" width="180" height="80" as="geometry" />
        </mxCell>
        <mxCell id="MVi8cVUKgiiV1papQBs0-54" value="" style="edgeStyle=orthogonalEdgeStyle;rounded=0;orthogonalLoop=1;jettySize=auto;html=1;" parent="1" source="MVi8cVUKgiiV1papQBs0-55" target="MVi8cVUKgiiV1papQBs0-57" edge="1">
          <mxGeometry relative="1" as="geometry" />
        </mxCell>
        <mxCell id="MVi8cVUKgiiV1papQBs0-55" value="AnalisisData()" style="strokeWidth=2;html=1;shape=mxgraph.flowchart.start_1;whiteSpace=wrap;" parent="1" vertex="1">
          <mxGeometry x="3920" y="120" width="180" height="80" as="geometry" />
        </mxCell>
        <mxCell id="MVi8cVUKgiiV1papQBs0-56" style="edgeStyle=orthogonalEdgeStyle;rounded=0;orthogonalLoop=1;jettySize=auto;html=1;exitX=0.5;exitY=1;exitDx=0;exitDy=0;entryX=0.5;entryY=0;entryDx=0;entryDy=0;" parent="1" source="MVi8cVUKgiiV1papQBs0-57" target="MVi8cVUKgiiV1papQBs0-59" edge="1">
          <mxGeometry relative="1" as="geometry" />
        </mxCell>
        <mxCell id="MVi8cVUKgiiV1papQBs0-57" value="output &quot;Analisis Data KRS&quot;" style="shape=parallelogram;html=1;strokeWidth=2;perimeter=parallelogramPerimeter;whiteSpace=wrap;rounded=1;arcSize=0;size=0.03125;" parent="1" vertex="1">
          <mxGeometry x="3890" y="240" width="240" height="60" as="geometry" />
        </mxCell>
        <mxCell id="MVi8cVUKgiiV1papQBs0-58" style="edgeStyle=orthogonalEdgeStyle;rounded=0;orthogonalLoop=1;jettySize=auto;html=1;exitX=0.5;exitY=1;exitDx=0;exitDy=0;entryX=0.5;entryY=0;entryDx=0;entryDy=0;" parent="1" source="MVi8cVUKgiiV1papQBs0-59" target="MVi8cVUKgiiV1papQBs0-61" edge="1">
          <mxGeometry relative="1" as="geometry" />
        </mxCell>
        <mxCell id="MVi8cVUKgiiV1papQBs0-59" value="int count = 0;" style="shape=parallelogram;html=1;strokeWidth=2;perimeter=parallelogramPerimeter;whiteSpace=wrap;rounded=1;arcSize=0;size=0;" parent="1" vertex="1">
          <mxGeometry x="3945" y="330" width="130" height="50" as="geometry" />
        </mxCell>
        <mxCell id="MVi8cVUKgiiV1papQBs0-60" style="edgeStyle=orthogonalEdgeStyle;rounded=0;orthogonalLoop=1;jettySize=auto;html=1;exitX=0.5;exitY=1;exitDx=0;exitDy=0;entryX=0.5;entryY=0;entryDx=0;entryDy=0;" parent="1" source="MVi8cVUKgiiV1papQBs0-61" target="MVi8cVUKgiiV1papQBs0-64" edge="1">
          <mxGeometry relative="1" as="geometry" />
        </mxCell>
        <mxCell id="MVi8cVUKgiiV1papQBs0-61" value="int i = 0;" style="shape=parallelogram;html=1;strokeWidth=2;perimeter=parallelogramPerimeter;whiteSpace=wrap;rounded=1;arcSize=0;size=0;" parent="1" vertex="1">
          <mxGeometry x="3945" y="405" width="130" height="50" as="geometry" />
        </mxCell>
        <mxCell id="MVi8cVUKgiiV1papQBs0-62" style="edgeStyle=orthogonalEdgeStyle;rounded=0;orthogonalLoop=1;jettySize=auto;html=1;exitX=1;exitY=0.5;exitDx=0;exitDy=0;entryX=0;entryY=0.5;entryDx=0;entryDy=0;" parent="1" source="MVi8cVUKgiiV1papQBs0-64" target="MVi8cVUKgiiV1papQBs0-69" edge="1">
          <mxGeometry relative="1" as="geometry" />
        </mxCell>
        <mxCell id="MVi8cVUKgiiV1papQBs0-63" value="TRUE" style="edgeLabel;html=1;align=center;verticalAlign=middle;resizable=0;points=[];" parent="MVi8cVUKgiiV1papQBs0-62" vertex="1" connectable="0">
          <mxGeometry x="-0.1229" y="4" relative="1" as="geometry">
            <mxPoint x="1" as="offset" />
          </mxGeometry>
        </mxCell>
        <mxCell id="MVi8cVUKgiiV1papQBs0-64" value="IF (i &amp;lt; maxMhs)" style="strokeWidth=2;rhombus;whiteSpace=wrap;html=1;" parent="1" vertex="1">
          <mxGeometry x="3933.75" y="490" width="152.5" height="110" as="geometry" />
        </mxCell>
        <mxCell id="MVi8cVUKgiiV1papQBs0-65" style="edgeStyle=orthogonalEdgeStyle;rounded=0;orthogonalLoop=1;jettySize=auto;html=1;exitX=0.5;exitY=1;exitDx=0;exitDy=0;entryX=0.5;entryY=0;entryDx=0;entryDy=0;" parent="1" source="MVi8cVUKgiiV1papQBs0-69" target="MVi8cVUKgiiV1papQBs0-71" edge="1">
          <mxGeometry relative="1" as="geometry" />
        </mxCell>
        <mxCell id="MVi8cVUKgiiV1papQBs0-66" value="TRUE" style="edgeLabel;html=1;align=center;verticalAlign=middle;resizable=0;points=[];" parent="MVi8cVUKgiiV1papQBs0-65" vertex="1" connectable="0">
          <mxGeometry x="-0.6" y="2" relative="1" as="geometry">
            <mxPoint as="offset" />
          </mxGeometry>
        </mxCell>
        <mxCell id="MVi8cVUKgiiV1papQBs0-107" style="edgeStyle=orthogonalEdgeStyle;rounded=0;orthogonalLoop=1;jettySize=auto;html=1;exitX=1;exitY=0.5;exitDx=0;exitDy=0;entryX=1;entryY=0.75;entryDx=0;entryDy=0;fontSize=12;startSize=8;endSize=8;" parent="1" source="MVi8cVUKgiiV1papQBs0-69" edge="1">
          <mxGeometry relative="1" as="geometry">
            <mxPoint x="4342.5" y="541.19" as="sourcePoint" />
            <mxPoint x="4320.63" y="769.94" as="targetPoint" />
            <Array as="points">
              <mxPoint x="4447" y="545" />
              <mxPoint x="4447" y="770" />
            </Array>
          </mxGeometry>
        </mxCell>
        <mxCell id="MVi8cVUKgiiV1papQBs0-108" value="FALSE" style="edgeLabel;html=1;align=center;verticalAlign=middle;resizable=0;points=[];fontSize=12;" parent="MVi8cVUKgiiV1papQBs0-107" vertex="1" connectable="0">
          <mxGeometry x="-0.0152" relative="1" as="geometry">
            <mxPoint as="offset" />
          </mxGeometry>
        </mxCell>
        <mxCell id="MVi8cVUKgiiV1papQBs0-69" value="IF (totalSKS[i] &amp;lt; 20)" style="strokeWidth=2;rhombus;whiteSpace=wrap;html=1;" parent="1" vertex="1">
          <mxGeometry x="4190" y="490" width="152.5" height="110" as="geometry" />
        </mxCell>
        <mxCell id="MVi8cVUKgiiV1papQBs0-70" value="" style="edgeStyle=orthogonalEdgeStyle;rounded=0;orthogonalLoop=1;jettySize=auto;html=1;" parent="1" source="MVi8cVUKgiiV1papQBs0-71" target="MVi8cVUKgiiV1papQBs0-73" edge="1">
          <mxGeometry relative="1" as="geometry" />
        </mxCell>
        <mxCell id="MVi8cVUKgiiV1papQBs0-71" value="count++" style="shape=parallelogram;html=1;strokeWidth=2;perimeter=parallelogramPerimeter;whiteSpace=wrap;rounded=1;arcSize=0;size=0;" parent="1" vertex="1">
          <mxGeometry x="4211.88" y="630" width="108.75" height="30" as="geometry" />
        </mxCell>
        <mxCell id="MVi8cVUKgiiV1papQBs0-93" style="edgeStyle=none;curved=1;rounded=0;orthogonalLoop=1;jettySize=auto;html=1;exitX=0.5;exitY=1;exitDx=0;exitDy=0;entryX=0.5;entryY=0;entryDx=0;entryDy=0;fontSize=12;startSize=8;endSize=8;" parent="1" source="MVi8cVUKgiiV1papQBs0-73" target="MVi8cVUKgiiV1papQBs0-92" edge="1">
          <mxGeometry relative="1" as="geometry" />
        </mxCell>
        <mxCell id="MVi8cVUKgiiV1papQBs0-73" value="output count" style="shape=parallelogram;html=1;strokeWidth=2;perimeter=parallelogramPerimeter;whiteSpace=wrap;rounded=1;arcSize=0;size=0.03125;" parent="1" vertex="1">
          <mxGeometry x="4171.25" y="685" width="190" height="40" as="geometry" />
        </mxCell>
        <mxCell id="MVi8cVUKgiiV1papQBs0-74" value="END" style="strokeWidth=2;html=1;shape=mxgraph.flowchart.terminator;whiteSpace=wrap;" parent="1" vertex="1">
          <mxGeometry x="3960" y="856.25" width="100" height="60" as="geometry" />
        </mxCell>
        <mxCell id="MVi8cVUKgiiV1papQBs0-75" style="edgeStyle=orthogonalEdgeStyle;rounded=0;orthogonalLoop=1;jettySize=auto;html=1;exitX=0.5;exitY=1;exitDx=0;exitDy=0;entryX=0.5;entryY=0;entryDx=0;entryDy=0;entryPerimeter=0;" parent="1" source="MVi8cVUKgiiV1papQBs0-64" target="MVi8cVUKgiiV1papQBs0-74" edge="1">
          <mxGeometry relative="1" as="geometry" />
        </mxCell>
        <mxCell id="MVi8cVUKgiiV1papQBs0-76" style="edgeStyle=orthogonalEdgeStyle;rounded=0;orthogonalLoop=1;jettySize=auto;html=1;exitX=0.5;exitY=1;exitDx=0;exitDy=0;entryX=0.5;entryY=0;entryDx=0;entryDy=0;" parent="1" source="MVi8cVUKgiiV1papQBs0-77" target="MVi8cVUKgiiV1papQBs0-79" edge="1">
          <mxGeometry relative="1" as="geometry" />
        </mxCell>
        <mxCell id="MVi8cVUKgiiV1papQBs0-77" value="output &quot;Tampil Daftar KRS Mahasiswa&quot;" style="shape=parallelogram;html=1;strokeWidth=2;perimeter=parallelogramPerimeter;whiteSpace=wrap;rounded=1;arcSize=0;size=0.03125;" parent="1" vertex="1">
          <mxGeometry x="2876.5" y="260" width="230" height="40" as="geometry" />
        </mxCell>
        <mxCell id="MVi8cVUKgiiV1papQBs0-78" style="edgeStyle=orthogonalEdgeStyle;rounded=0;orthogonalLoop=1;jettySize=auto;html=1;exitX=0.5;exitY=1;exitDx=0;exitDy=0;entryX=0.5;entryY=0;entryDx=0;entryDy=0;" parent="1" source="MVi8cVUKgiiV1papQBs0-79" target="MVi8cVUKgiiV1papQBs0-81" edge="1">
          <mxGeometry relative="1" as="geometry" />
        </mxCell>
        <mxCell id="MVi8cVUKgiiV1papQBs0-79" value="output &quot;Masukkan NIM Mahasiswa&quot;" style="shape=parallelogram;html=1;strokeWidth=2;perimeter=parallelogramPerimeter;whiteSpace=wrap;rounded=1;arcSize=0;size=0.03125;" parent="1" vertex="1">
          <mxGeometry x="2881.5" y="330" width="220" height="40" as="geometry" />
        </mxCell>
        <mxCell id="MVi8cVUKgiiV1papQBs0-80" value="" style="edgeStyle=orthogonalEdgeStyle;rounded=0;orthogonalLoop=1;jettySize=auto;html=1;" parent="1" source="MVi8cVUKgiiV1papQBs0-81" target="MVi8cVUKgiiV1papQBs0-83" edge="1">
          <mxGeometry relative="1" as="geometry" />
        </mxCell>
        <mxCell id="MVi8cVUKgiiV1papQBs0-81" value="input searchMahasiswa" style="shape=parallelogram;html=1;strokeWidth=2;perimeter=parallelogramPerimeter;whiteSpace=wrap;rounded=1;arcSize=0;size=0.03125;" parent="1" vertex="1">
          <mxGeometry x="2888.99" y="395" width="200" height="30" as="geometry" />
        </mxCell>
        <mxCell id="MVi8cVUKgiiV1papQBs0-82" style="edgeStyle=orthogonalEdgeStyle;rounded=0;orthogonalLoop=1;jettySize=auto;html=1;exitX=0.5;exitY=1;exitDx=0;exitDy=0;entryX=0.5;entryY=0;entryDx=0;entryDy=0;" parent="1" source="MVi8cVUKgiiV1papQBs0-83" target="MVi8cVUKgiiV1papQBs0-84" edge="1">
          <mxGeometry relative="1" as="geometry" />
        </mxCell>
        <mxCell id="MVi8cVUKgiiV1papQBs0-83" value="output &quot;Daftar KRS&quot;" style="shape=parallelogram;html=1;strokeWidth=2;perimeter=parallelogramPerimeter;whiteSpace=wrap;rounded=1;arcSize=0;size=0.03125;" parent="1" vertex="1">
          <mxGeometry x="2882.73" y="460" width="212.51" height="30" as="geometry" />
        </mxCell>
        <mxCell id="9UBLBmkFSBw5mUVlvuhj-63" value="" style="edgeStyle=orthogonalEdgeStyle;rounded=0;orthogonalLoop=1;jettySize=auto;html=1;" parent="1" source="MVi8cVUKgiiV1papQBs0-84" target="MVi8cVUKgiiV1papQBs0-110" edge="1">
          <mxGeometry relative="1" as="geometry" />
        </mxCell>
        <mxCell id="MVi8cVUKgiiV1papQBs0-84" value="int i = 0;" style="shape=parallelogram;html=1;strokeWidth=2;perimeter=parallelogramPerimeter;whiteSpace=wrap;rounded=1;arcSize=0;size=0;" parent="1" vertex="1">
          <mxGeometry x="2940.24" y="520" width="97.5" height="35" as="geometry" />
        </mxCell>
        <mxCell id="MVi8cVUKgiiV1papQBs0-91" value="count++" style="shape=parallelogram;html=1;strokeWidth=2;perimeter=parallelogramPerimeter;whiteSpace=wrap;rounded=1;arcSize=0;size=0;" parent="1" vertex="1">
          <mxGeometry x="4211.88" y="630" width="108.75" height="30" as="geometry" />
        </mxCell>
        <mxCell id="MVi8cVUKgiiV1papQBs0-92" value="i++" style="shape=parallelogram;html=1;strokeWidth=2;perimeter=parallelogramPerimeter;whiteSpace=wrap;rounded=1;arcSize=0;size=0;" parent="1" vertex="1">
          <mxGeometry x="4211.88" y="751.25" width="108.75" height="30" as="geometry" />
        </mxCell>
        <mxCell id="MVi8cVUKgiiV1papQBs0-109" style="edgeStyle=orthogonalEdgeStyle;rounded=0;orthogonalLoop=1;jettySize=auto;html=1;exitX=0;exitY=0.5;exitDx=0;exitDy=0;entryX=0.5;entryY=0;entryDx=0;entryDy=0;entryPerimeter=0;fontSize=12;startSize=8;endSize=8;" parent="1" source="MVi8cVUKgiiV1papQBs0-92" target="MVi8cVUKgiiV1papQBs0-74" edge="1">
          <mxGeometry relative="1" as="geometry" />
        </mxCell>
        <mxCell id="9UBLBmkFSBw5mUVlvuhj-64" style="edgeStyle=orthogonalEdgeStyle;rounded=0;orthogonalLoop=1;jettySize=auto;html=1;exitX=0.5;exitY=1;exitDx=0;exitDy=0;entryX=0.5;entryY=0;entryDx=0;entryDy=0;" parent="1" source="MVi8cVUKgiiV1papQBs0-110" target="9UBLBmkFSBw5mUVlvuhj-2" edge="1">
          <mxGeometry relative="1" as="geometry" />
        </mxCell>
        <mxCell id="MVi8cVUKgiiV1papQBs0-110" value="IF (i &amp;lt; dataKrs.length)" style="strokeWidth=2;rhombus;whiteSpace=wrap;html=1;" parent="1" vertex="1">
          <mxGeometry x="2912.74" y="585" width="152.5" height="110" as="geometry" />
        </mxCell>
        <mxCell id="9UBLBmkFSBw5mUVlvuhj-2" value="int index = -1" style="strokeWidth=2;whiteSpace=wrap;html=1;" parent="1" vertex="1">
          <mxGeometry x="2947.73" y="730" width="82.51" height="30" as="geometry" />
        </mxCell>
        <mxCell id="9UBLBmkFSBw5mUVlvuhj-12" value="" style="edgeStyle=orthogonalEdgeStyle;rounded=0;orthogonalLoop=1;jettySize=auto;html=1;" parent="1" source="9UBLBmkFSBw5mUVlvuhj-8" target="9UBLBmkFSBw5mUVlvuhj-11" edge="1">
          <mxGeometry relative="1" as="geometry" />
        </mxCell>
        <mxCell id="9UBLBmkFSBw5mUVlvuhj-8" value="IF(searchMahasiswa.equalsIgnoreCase(dataMhs[i][0]))" style="strokeWidth=2;rhombus;whiteSpace=wrap;html=1;" parent="1" vertex="1">
          <mxGeometry x="2912.74" y="820" width="152.5" height="110" as="geometry" />
        </mxCell>
        <mxCell id="9UBLBmkFSBw5mUVlvuhj-16" value="" style="edgeStyle=orthogonalEdgeStyle;rounded=0;orthogonalLoop=1;jettySize=auto;html=1;" parent="1" source="9UBLBmkFSBw5mUVlvuhj-11" target="9UBLBmkFSBw5mUVlvuhj-15" edge="1">
          <mxGeometry relative="1" as="geometry" />
        </mxCell>
        <mxCell id="9UBLBmkFSBw5mUVlvuhj-11" value="index = i" style="whiteSpace=wrap;html=1;" parent="1" vertex="1">
          <mxGeometry x="2945.23" y="950" width="87.51" height="30" as="geometry" />
        </mxCell>
        <mxCell id="9UBLBmkFSBw5mUVlvuhj-20" value="" style="edgeStyle=orthogonalEdgeStyle;rounded=0;orthogonalLoop=1;jettySize=auto;html=1;" parent="1" source="9UBLBmkFSBw5mUVlvuhj-15" target="9UBLBmkFSBw5mUVlvuhj-19" edge="1">
          <mxGeometry relative="1" as="geometry" />
        </mxCell>
        <mxCell id="9UBLBmkFSBw5mUVlvuhj-28" value="" style="edgeStyle=orthogonalEdgeStyle;rounded=0;orthogonalLoop=1;jettySize=auto;html=1;" parent="1" source="9UBLBmkFSBw5mUVlvuhj-15" target="9UBLBmkFSBw5mUVlvuhj-27" edge="1">
          <mxGeometry relative="1" as="geometry" />
        </mxCell>
        <mxCell id="9UBLBmkFSBw5mUVlvuhj-15" value="for(String koloms : kolom)" style="strokeWidth=2;rhombus;whiteSpace=wrap;html=1;" parent="1" vertex="1">
          <mxGeometry x="2912.74" y="1032.5" width="152.5" height="110" as="geometry" />
        </mxCell>
        <mxCell id="9UBLBmkFSBw5mUVlvuhj-19" value="Output (&quot;\t&quot; + koloms + &quot;\t&quot;)" style="shape=parallelogram;html=1;strokeWidth=2;perimeter=parallelogramPerimeter;whiteSpace=wrap;rounded=1;arcSize=0;size=0.03125;" parent="1" vertex="1">
          <mxGeometry x="3171.5" y="1057.5" width="160" height="60" as="geometry" />
        </mxCell>
        <mxCell id="9UBLBmkFSBw5mUVlvuhj-30" value="" style="edgeStyle=orthogonalEdgeStyle;rounded=0;orthogonalLoop=1;jettySize=auto;html=1;" parent="1" source="9UBLBmkFSBw5mUVlvuhj-27" target="9UBLBmkFSBw5mUVlvuhj-29" edge="1">
          <mxGeometry relative="1" as="geometry" />
        </mxCell>
        <mxCell id="9UBLBmkFSBw5mUVlvuhj-27" value="System,out,println():" style="shape=parallelogram;html=1;strokeWidth=2;perimeter=parallelogramPerimeter;whiteSpace=wrap;rounded=1;arcSize=0;size=0.03125;" parent="1" vertex="1">
          <mxGeometry x="2908.99" y="1180" width="160" height="40" as="geometry" />
        </mxCell>
        <mxCell id="9UBLBmkFSBw5mUVlvuhj-29" value="int j = 0" style="whiteSpace=wrap;html=1;strokeWidth=2;rounded=1;arcSize=0;" parent="1" vertex="1">
          <mxGeometry x="2943.99" y="1260" width="90" height="30" as="geometry" />
        </mxCell>
        <mxCell id="9UBLBmkFSBw5mUVlvuhj-56" value="" style="edgeStyle=orthogonalEdgeStyle;rounded=0;orthogonalLoop=1;jettySize=auto;html=1;" parent="1" source="9UBLBmkFSBw5mUVlvuhj-31" target="9UBLBmkFSBw5mUVlvuhj-55" edge="1">
          <mxGeometry relative="1" as="geometry" />
        </mxCell>
        <mxCell id="9UBLBmkFSBw5mUVlvuhj-88" value="TRUE" style="edgeLabel;html=1;align=center;verticalAlign=middle;resizable=0;points=[];" parent="9UBLBmkFSBw5mUVlvuhj-56" vertex="1" connectable="0">
          <mxGeometry x="-0.306" relative="1" as="geometry">
            <mxPoint as="offset" />
          </mxGeometry>
        </mxCell>
        <mxCell id="9UBLBmkFSBw5mUVlvuhj-66" style="edgeStyle=orthogonalEdgeStyle;rounded=0;orthogonalLoop=1;jettySize=auto;html=1;exitX=0;exitY=0.5;exitDx=0;exitDy=0;entryX=1;entryY=0.5;entryDx=0;entryDy=0;" parent="1" source="9UBLBmkFSBw5mUVlvuhj-31" target="9UBLBmkFSBw5mUVlvuhj-33" edge="1">
          <mxGeometry relative="1" as="geometry" />
        </mxCell>
        <mxCell id="9UBLBmkFSBw5mUVlvuhj-87" value="FALSE" style="edgeLabel;html=1;align=center;verticalAlign=middle;resizable=0;points=[];" parent="9UBLBmkFSBw5mUVlvuhj-66" vertex="1" connectable="0">
          <mxGeometry x="-0.2203" y="4" relative="1" as="geometry">
            <mxPoint as="offset" />
          </mxGeometry>
        </mxCell>
        <mxCell id="9UBLBmkFSBw5mUVlvuhj-31" value="j &amp;lt; dataMhs[i].length" style="rhombus;whiteSpace=wrap;html=1;" parent="1" vertex="1">
          <mxGeometry x="2912.73" y="1350" width="152.5" height="110" as="geometry" />
        </mxCell>
        <mxCell id="9UBLBmkFSBw5mUVlvuhj-68" style="edgeStyle=orthogonalEdgeStyle;rounded=0;orthogonalLoop=1;jettySize=auto;html=1;exitX=0.5;exitY=0;exitDx=0;exitDy=0;entryX=0.5;entryY=1;entryDx=0;entryDy=0;" parent="1" source="9UBLBmkFSBw5mUVlvuhj-33" target="9UBLBmkFSBw5mUVlvuhj-35" edge="1">
          <mxGeometry relative="1" as="geometry" />
        </mxCell>
        <mxCell id="9UBLBmkFSBw5mUVlvuhj-33" value="Output (&quot;\t&quot; + dataMhs[undex] [j] + &quot;\t&quot;);" style="shape=parallelogram;html=1;strokeWidth=2;perimeter=parallelogramPerimeter;whiteSpace=wrap;rounded=1;arcSize=0;size=0.03125;" parent="1" vertex="1">
          <mxGeometry x="2601.5" y="1382.5" width="227.5" height="45" as="geometry" />
        </mxCell>
        <mxCell id="9UBLBmkFSBw5mUVlvuhj-35" value="j++" style="whiteSpace=wrap;html=1;strokeWidth=2;rounded=1;arcSize=0;" parent="1" vertex="1">
          <mxGeometry x="2685.25" y="1305" width="60" height="30" as="geometry" />
        </mxCell>
        <mxCell id="9UBLBmkFSBw5mUVlvuhj-39" value="i++" style="whiteSpace=wrap;html=1;" parent="1" vertex="1">
          <mxGeometry x="3411.5" y="1070" width="97.5" height="35" as="geometry" />
        </mxCell>
        <mxCell id="9UBLBmkFSBw5mUVlvuhj-59" value="" style="edgeStyle=orthogonalEdgeStyle;rounded=0;orthogonalLoop=1;jettySize=auto;html=1;" parent="1" source="9UBLBmkFSBw5mUVlvuhj-55" target="9UBLBmkFSBw5mUVlvuhj-58" edge="1">
          <mxGeometry relative="1" as="geometry" />
        </mxCell>
        <mxCell id="9UBLBmkFSBw5mUVlvuhj-55" value="Output (&quot;\t\t\t&quot; + sksMhs[i])" style="shape=parallelogram;perimeter=parallelogramPerimeter;whiteSpace=wrap;html=1;fixedSize=1;" parent="1" vertex="1">
          <mxGeometry x="2898.99" y="1490" width="180" height="40" as="geometry" />
        </mxCell>
        <mxCell id="9UBLBmkFSBw5mUVlvuhj-62" value="" style="edgeStyle=orthogonalEdgeStyle;rounded=0;orthogonalLoop=1;jettySize=auto;html=1;" parent="1" source="9UBLBmkFSBw5mUVlvuhj-58" target="9UBLBmkFSBw5mUVlvuhj-61" edge="1">
          <mxGeometry relative="1" as="geometry" />
        </mxCell>
        <mxCell id="9UBLBmkFSBw5mUVlvuhj-58" value="System.out.println();" style="shape=parallelogram;perimeter=parallelogramPerimeter;whiteSpace=wrap;html=1;fixedSize=1;" parent="1" vertex="1">
          <mxGeometry x="2891.49" y="1560" width="195" height="40" as="geometry" />
        </mxCell>
        <mxCell id="9UBLBmkFSBw5mUVlvuhj-76" style="edgeStyle=orthogonalEdgeStyle;rounded=0;orthogonalLoop=1;jettySize=auto;html=1;exitX=0.5;exitY=1;exitDx=0;exitDy=0;entryX=0.5;entryY=1;entryDx=0;entryDy=0;" parent="1" source="9UBLBmkFSBw5mUVlvuhj-61" target="9UBLBmkFSBw5mUVlvuhj-39" edge="1">
          <mxGeometry relative="1" as="geometry" />
        </mxCell>
        <mxCell id="9UBLBmkFSBw5mUVlvuhj-61" value="Output (&quot;Total SKS: &quot; + totalSKS[index])&amp;nbsp;" style="shape=parallelogram;perimeter=parallelogramPerimeter;whiteSpace=wrap;html=1;fixedSize=1;" parent="1" vertex="1">
          <mxGeometry x="2886.84" y="1640" width="204.29" height="50" as="geometry" />
        </mxCell>
        <mxCell id="9UBLBmkFSBw5mUVlvuhj-72" style="edgeStyle=orthogonalEdgeStyle;rounded=0;orthogonalLoop=1;jettySize=auto;html=1;exitX=0.5;exitY=1;exitDx=0;exitDy=0;exitPerimeter=0;" parent="1" source="9UBLBmkFSBw5mUVlvuhj-70" target="9UBLBmkFSBw5mUVlvuhj-31" edge="1">
          <mxGeometry relative="1" as="geometry" />
        </mxCell>
        <mxCell id="9UBLBmkFSBw5mUVlvuhj-70" value="" style="verticalLabelPosition=bottom;verticalAlign=top;html=1;shape=mxgraph.flowchart.on-page_reference;" parent="1" vertex="1">
          <mxGeometry x="2978.99" y="1310" width="20" height="20" as="geometry" />
        </mxCell>
        <mxCell id="9UBLBmkFSBw5mUVlvuhj-74" style="edgeStyle=orthogonalEdgeStyle;rounded=0;orthogonalLoop=1;jettySize=auto;html=1;exitX=0.5;exitY=1;exitDx=0;exitDy=0;entryX=0.5;entryY=0;entryDx=0;entryDy=0;entryPerimeter=0;" parent="1" source="9UBLBmkFSBw5mUVlvuhj-29" target="9UBLBmkFSBw5mUVlvuhj-70" edge="1">
          <mxGeometry relative="1" as="geometry" />
        </mxCell>
        <mxCell id="9UBLBmkFSBw5mUVlvuhj-75" style="edgeStyle=orthogonalEdgeStyle;rounded=0;orthogonalLoop=1;jettySize=auto;html=1;exitX=1;exitY=0.5;exitDx=0;exitDy=0;entryX=0;entryY=0.5;entryDx=0;entryDy=0;entryPerimeter=0;" parent="1" source="9UBLBmkFSBw5mUVlvuhj-35" target="9UBLBmkFSBw5mUVlvuhj-70" edge="1">
          <mxGeometry relative="1" as="geometry" />
        </mxCell>
        <mxCell id="9UBLBmkFSBw5mUVlvuhj-80" style="edgeStyle=orthogonalEdgeStyle;rounded=0;orthogonalLoop=1;jettySize=auto;html=1;exitX=0.5;exitY=1;exitDx=0;exitDy=0;exitPerimeter=0;entryX=0.5;entryY=0;entryDx=0;entryDy=0;" parent="1" source="9UBLBmkFSBw5mUVlvuhj-78" target="9UBLBmkFSBw5mUVlvuhj-8" edge="1">
          <mxGeometry relative="1" as="geometry" />
        </mxCell>
        <mxCell id="9UBLBmkFSBw5mUVlvuhj-78" value="" style="strokeWidth=2;verticalLabelPosition=bottom;verticalAlign=top;html=1;shape=mxgraph.flowchart.on-page_reference;" parent="1" vertex="1">
          <mxGeometry x="2978.98" y="776.25" width="20" height="20" as="geometry" />
        </mxCell>
        <mxCell id="9UBLBmkFSBw5mUVlvuhj-79" style="edgeStyle=orthogonalEdgeStyle;rounded=0;orthogonalLoop=1;jettySize=auto;html=1;exitX=0.5;exitY=1;exitDx=0;exitDy=0;entryX=0.5;entryY=0;entryDx=0;entryDy=0;entryPerimeter=0;" parent="1" source="9UBLBmkFSBw5mUVlvuhj-2" target="9UBLBmkFSBw5mUVlvuhj-78" edge="1">
          <mxGeometry relative="1" as="geometry" />
        </mxCell>
        <mxCell id="9UBLBmkFSBw5mUVlvuhj-86" style="edgeStyle=orthogonalEdgeStyle;rounded=0;orthogonalLoop=1;jettySize=auto;html=1;entryX=1;entryY=0.5;entryDx=0;entryDy=0;entryPerimeter=0;" parent="1" source="9UBLBmkFSBw5mUVlvuhj-39" target="9UBLBmkFSBw5mUVlvuhj-78" edge="1">
          <mxGeometry relative="1" as="geometry">
            <Array as="points">
              <mxPoint x="3460.5" y="786" />
            </Array>
          </mxGeometry>
        </mxCell>
        <mxCell id="An7cOaeQkfelgaiPVGqu-4" value="" style="edgeStyle=orthogonalEdgeStyle;rounded=0;orthogonalLoop=1;jettySize=auto;html=1;" parent="1" source="An7cOaeQkfelgaiPVGqu-1" target="An7cOaeQkfelgaiPVGqu-3" edge="1">
          <mxGeometry relative="1" as="geometry" />
        </mxCell>
        <mxCell id="An7cOaeQkfelgaiPVGqu-1" value="int sks = 0" style="rounded=0;whiteSpace=wrap;html=1;" parent="1" vertex="1">
          <mxGeometry x="2127.5" y="450" width="65" height="30" as="geometry" />
        </mxCell>
        <mxCell id="An7cOaeQkfelgaiPVGqu-6" value="" style="edgeStyle=orthogonalEdgeStyle;rounded=0;orthogonalLoop=1;jettySize=auto;html=1;" parent="1" source="An7cOaeQkfelgaiPVGqu-3" target="An7cOaeQkfelgaiPVGqu-5" edge="1">
          <mxGeometry relative="1" as="geometry" />
        </mxCell>
        <mxCell id="An7cOaeQkfelgaiPVGqu-3" value="int sksTotal = 0" style="rounded=0;whiteSpace=wrap;html=1;" parent="1" vertex="1">
          <mxGeometry x="2127.5" y="500" width="65" height="30" as="geometry" />
        </mxCell>
        <mxCell id="An7cOaeQkfelgaiPVGqu-8" value="" style="edgeStyle=orthogonalEdgeStyle;rounded=0;orthogonalLoop=1;jettySize=auto;html=1;" parent="1" source="An7cOaeQkfelgaiPVGqu-5" target="An7cOaeQkfelgaiPVGqu-7" edge="1">
          <mxGeometry relative="1" as="geometry" />
        </mxCell>
        <mxCell id="An7cOaeQkfelgaiPVGqu-5" value="output &quot;Nama Mahasiswa: &quot;" style="shape=parallelogram;html=1;strokeWidth=2;perimeter=parallelogramPerimeter;whiteSpace=wrap;rounded=1;arcSize=0;size=0.03125;" parent="1" vertex="1">
          <mxGeometry x="2060" y="555" width="200" height="45" as="geometry" />
        </mxCell>
        <mxCell id="An7cOaeQkfelgaiPVGqu-10" value="" style="edgeStyle=orthogonalEdgeStyle;rounded=0;orthogonalLoop=1;jettySize=auto;html=1;" parent="1" source="An7cOaeQkfelgaiPVGqu-7" target="An7cOaeQkfelgaiPVGqu-9" edge="1">
          <mxGeometry relative="1" as="geometry" />
        </mxCell>
        <mxCell id="An7cOaeQkfelgaiPVGqu-7" value="input dataMhs[i][0]" style="shape=parallelogram;html=1;strokeWidth=2;perimeter=parallelogramPerimeter;whiteSpace=wrap;rounded=1;arcSize=0;size=0.03125;" parent="1" vertex="1">
          <mxGeometry x="2050" y="630" width="220" height="45" as="geometry" />
        </mxCell>
        <mxCell id="An7cOaeQkfelgaiPVGqu-12" value="" style="edgeStyle=orthogonalEdgeStyle;rounded=0;orthogonalLoop=1;jettySize=auto;html=1;" parent="1" source="An7cOaeQkfelgaiPVGqu-9" target="An7cOaeQkfelgaiPVGqu-11" edge="1">
          <mxGeometry relative="1" as="geometry" />
        </mxCell>
        <mxCell id="An7cOaeQkfelgaiPVGqu-9" value="output &quot;Nim: : &quot;" style="shape=parallelogram;html=1;strokeWidth=2;perimeter=parallelogramPerimeter;whiteSpace=wrap;rounded=1;arcSize=0;size=0.03125;" parent="1" vertex="1">
          <mxGeometry x="2050" y="696.25" width="220" height="50" as="geometry" />
        </mxCell>
        <mxCell id="An7cOaeQkfelgaiPVGqu-11" value="input dataMhs[i][1]" style="shape=parallelogram;html=1;strokeWidth=2;perimeter=parallelogramPerimeter;whiteSpace=wrap;rounded=1;arcSize=0;size=0.03125;" parent="1" vertex="1">
          <mxGeometry x="2050" y="773.75" width="220" height="45" as="geometry" />
        </mxCell>
        <mxCell id="An7cOaeQkfelgaiPVGqu-16" style="edgeStyle=orthogonalEdgeStyle;rounded=0;orthogonalLoop=1;jettySize=auto;html=1;exitX=0.5;exitY=1;exitDx=0;exitDy=0;entryX=0.5;entryY=0;entryDx=0;entryDy=0;" parent="1" source="An7cOaeQkfelgaiPVGqu-13" target="An7cOaeQkfelgaiPVGqu-15" edge="1">
          <mxGeometry relative="1" as="geometry" />
        </mxCell>
        <mxCell id="An7cOaeQkfelgaiPVGqu-13" value="while(true)" style="rhombus;whiteSpace=wrap;html=1;" parent="1" vertex="1">
          <mxGeometry x="2095" y="882" width="130" height="100" as="geometry" />
        </mxCell>
        <mxCell id="An7cOaeQkfelgaiPVGqu-20" style="edgeStyle=orthogonalEdgeStyle;rounded=0;orthogonalLoop=1;jettySize=auto;html=1;exitX=0.5;exitY=1;exitDx=0;exitDy=0;entryX=0.5;entryY=0;entryDx=0;entryDy=0;" parent="1" source="An7cOaeQkfelgaiPVGqu-15" target="An7cOaeQkfelgaiPVGqu-17" edge="1">
          <mxGeometry relative="1" as="geometry" />
        </mxCell>
        <mxCell id="An7cOaeQkfelgaiPVGqu-15" value="output &quot;Kode Mata&lt;span style=&quot;color: rgba(0, 0, 0, 0); font-family: monospace; font-size: 0px; text-align: start; text-wrap-mode: nowrap;&quot;&gt;%3CmxGraphModel%3E%3Croot%3E%3CmxCell%20id%3D%220%22%2F%3E%3CmxCell%20id%3D%221%22%20parent%3D%220%22%2F%3E%3CmxCell%20id%3D%222%22%20value%3D%22output%20%26quot%3BNama%20Mahasiswa%3A%20%26quot%3B%22%20style%3D%22shape%3Dparallelogram%3Bhtml%3D1%3BstrokeWidth%3D2%3Bperimeter%3DparallelogramPerimeter%3BwhiteSpace%3Dwrap%3Brounded%3D1%3BarcSize%3D0%3Bsize%3D0.03125%3B%22%20vertex%3D%221%22%20parent%3D%221%22%3E%3CmxGeometry%20x%3D%222060%22%20y%3D%22555%22%20width%3D%22200%22%20height%3D%2245%22%20as%3D%22geometry%22%2F%3E%3C%2FmxCell%3E%3C%2Froot%3E%3C%2FmxGraphModel%3E&lt;/span&gt;&amp;nbsp;Ku&lt;span style=&quot;color: rgba(0, 0, 0, 0); font-family: monospace; font-size: 0px; text-align: start; text-wrap-mode: nowrap;&quot;&gt;%3CmxGraphModel%3E%3Croot%3E%3CmxCell%20id%3D%220%22%2F%3E%3CmxCell%20id%3D%221%22%20parent%3D%220%22%2F%3E%3CmxCell%20id%3D%222%22%20value%3D%22output%20%26quot%3BNama%20Mahasiswa%3A%20%26quot%3B%22%20style%3D%22shape%3Dparallelogram%3Bhtml%3D1%3BstrokeWidth%3D2%3Bperimeter%3DparallelogramPerimeter%3BwhiteSpace%3Dwrap%3Brounded%3D1%3BarcSize%3D0%3Bsize%3D0.03125%3B%22%20vertex%3D%221%22%20parent%3D%221%22%3E%3CmxGeometry%20x%3D%222060%22%20y%3D%22555%22%20width%3D%22200%22%20height%3D%2245%22%20as%3D%22geometry%22%2F%3E%3C%2FmxCell%3E%3C%2Froot%3E%3C%2FmxGraphModel%3E&lt;/span&gt;liah: &quot;" style="shape=parallelogram;html=1;strokeWidth=2;perimeter=parallelogramPerimeter;whiteSpace=wrap;rounded=1;arcSize=0;size=0.03125;" parent="1" vertex="1">
          <mxGeometry x="2060" y="1012.5" width="200" height="45" as="geometry" />
        </mxCell>
        <mxCell id="An7cOaeQkfelgaiPVGqu-22" value="" style="edgeStyle=orthogonalEdgeStyle;rounded=0;orthogonalLoop=1;jettySize=auto;html=1;" parent="1" source="An7cOaeQkfelgaiPVGqu-17" target="An7cOaeQkfelgaiPVGqu-18" edge="1">
          <mxGeometry relative="1" as="geometry" />
        </mxCell>
        <mxCell id="An7cOaeQkfelgaiPVGqu-17" value="input dataKrs[i][0]" style="shape=parallelogram;html=1;strokeWidth=2;perimeter=parallelogramPerimeter;whiteSpace=wrap;rounded=1;arcSize=0;size=0.03125;" parent="1" vertex="1">
          <mxGeometry x="2060" y="1087.5" width="200" height="45" as="geometry" />
        </mxCell>
        <mxCell id="An7cOaeQkfelgaiPVGqu-23" style="edgeStyle=orthogonalEdgeStyle;rounded=0;orthogonalLoop=1;jettySize=auto;html=1;exitX=0.5;exitY=1;exitDx=0;exitDy=0;entryX=0.5;entryY=0;entryDx=0;entryDy=0;" parent="1" source="An7cOaeQkfelgaiPVGqu-18" target="An7cOaeQkfelgaiPVGqu-19" edge="1">
          <mxGeometry relative="1" as="geometry" />
        </mxCell>
        <mxCell id="An7cOaeQkfelgaiPVGqu-18" value="output &quot;Nama Mata&lt;span style=&quot;color: rgba(0, 0, 0, 0); font-family: monospace; font-size: 0px; text-align: start; text-wrap-mode: nowrap;&quot;&gt;%3CmxGraphModel%3E%3Croot%3E%3CmxCell%20id%3D%220%22%2F%3E%3CmxCell%20id%3D%221%22%20parent%3D%220%22%2F%3E%3CmxCell%20id%3D%222%22%20value%3D%22output%20%26quot%3BNama%20Mahasiswa%3A%20%26quot%3B%22%20style%3D%22shape%3Dparallelogram%3Bhtml%3D1%3BstrokeWidth%3D2%3Bperimeter%3DparallelogramPerimeter%3BwhiteSpace%3Dwrap%3Brounded%3D1%3BarcSize%3D0%3Bsize%3D0.03125%3B%22%20vertex%3D%221%22%20parent%3D%221%22%3E%3CmxGeometry%20x%3D%222060%22%20y%3D%22555%22%20width%3D%22200%22%20height%3D%2245%22%20as%3D%22geometry%22%2F%3E%3C%2FmxCell%3E%3C%2Froot%3E%3C%2FmxGraphModel%3E&lt;/span&gt;&amp;nbsp;Ku&lt;span style=&quot;color: rgba(0, 0, 0, 0); font-family: monospace; font-size: 0px; text-align: start; text-wrap-mode: nowrap;&quot;&gt;%3CmxGraphModel%3E%3Croot%3E%3CmxCell%20id%3D%220%22%2F%3E%3CmxCell%20id%3D%221%22%20parent%3D%220%22%2F%3E%3CmxCell%20id%3D%222%22%20value%3D%22output%20%26quot%3BNama%20Mahasiswa%3A%20%26quot%3B%22%20style%3D%22shape%3Dparallelogram%3Bhtml%3D1%3BstrokeWidth%3D2%3Bperimeter%3DparallelogramPerimeter%3BwhiteSpace%3Dwrap%3Brounded%3D1%3BarcSize%3D0%3Bsize%3D0.03125%3B%22%20vertex%3D%221%22%20parent%3D%221%22%3E%3CmxGeometry%20x%3D%222060%22%20y%3D%22555%22%20width%3D%22200%22%20height%3D%2245%22%20as%3D%22geometry%22%2F%3E%3C%2FmxCell%3E%3C%2Froot%3E%3C%2FmxGraphModel%3E&lt;/span&gt;liah: &quot;" style="shape=parallelogram;html=1;strokeWidth=2;perimeter=parallelogramPerimeter;whiteSpace=wrap;rounded=1;arcSize=0;size=0.03125;" parent="1" vertex="1">
          <mxGeometry x="2060" y="1170" width="200" height="45" as="geometry" />
        </mxCell>
        <mxCell id="An7cOaeQkfelgaiPVGqu-36" value="" style="edgeStyle=orthogonalEdgeStyle;rounded=0;orthogonalLoop=1;jettySize=auto;html=1;" parent="1" source="An7cOaeQkfelgaiPVGqu-19" target="An7cOaeQkfelgaiPVGqu-35" edge="1">
          <mxGeometry relative="1" as="geometry" />
        </mxCell>
        <mxCell id="An7cOaeQkfelgaiPVGqu-19" value="input dataKrs[i][1]" style="shape=parallelogram;html=1;strokeWidth=2;perimeter=parallelogramPerimeter;whiteSpace=wrap;rounded=1;arcSize=0;size=0.03125;" parent="1" vertex="1">
          <mxGeometry x="2060" y="1245" width="200" height="45" as="geometry" />
        </mxCell>
        <mxCell id="An7cOaeQkfelgaiPVGqu-26" value="" style="edgeStyle=orthogonalEdgeStyle;rounded=0;orthogonalLoop=1;jettySize=auto;html=1;" parent="1" source="An7cOaeQkfelgaiPVGqu-24" target="An7cOaeQkfelgaiPVGqu-25" edge="1">
          <mxGeometry relative="1" as="geometry" />
        </mxCell>
        <mxCell id="An7cOaeQkfelgaiPVGqu-24" value="Start" style="strokeWidth=2;html=1;shape=mxgraph.flowchart.start_1;whiteSpace=wrap;" parent="1" vertex="1">
          <mxGeometry x="672" y="150" width="140" height="70" as="geometry" />
        </mxCell>
        <mxCell id="An7cOaeQkfelgaiPVGqu-29" style="edgeStyle=orthogonalEdgeStyle;rounded=0;orthogonalLoop=1;jettySize=auto;html=1;exitX=0.5;exitY=1;exitDx=0;exitDy=0;entryX=0.5;entryY=0;entryDx=0;entryDy=0;" parent="1" source="An7cOaeQkfelgaiPVGqu-25" target="An7cOaeQkfelgaiPVGqu-28" edge="1">
          <mxGeometry relative="1" as="geometry" />
        </mxCell>
        <mxCell id="An7cOaeQkfelgaiPVGqu-25" value="" style="strokeWidth=2;verticalLabelPosition=bottom;verticalAlign=top;html=1;shape=hexagon;perimeter=hexagonPerimeter2;arcSize=6;size=0.1;" parent="1" vertex="1">
          <mxGeometry x="667" y="280" width="150" height="80" as="geometry" />
        </mxCell>
        <mxCell id="An7cOaeQkfelgaiPVGqu-27" value="String searchMahasiswa = &quot;&quot;;" style="text;html=1;align=center;verticalAlign=middle;resizable=0;points=[];autosize=1;strokeColor=none;fillColor=none;" parent="1" vertex="1">
          <mxGeometry x="657" y="305" width="180" height="30" as="geometry" />
        </mxCell>
        <mxCell id="An7cOaeQkfelgaiPVGqu-34" value="" style="edgeStyle=orthogonalEdgeStyle;rounded=0;orthogonalLoop=1;jettySize=auto;html=1;" parent="1" source="An7cOaeQkfelgaiPVGqu-28" target="An7cOaeQkfelgaiPVGqu-31" edge="1">
          <mxGeometry relative="1" as="geometry" />
        </mxCell>
        <mxCell id="An7cOaeQkfelgaiPVGqu-28" value="" style="verticalLabelPosition=bottom;verticalAlign=top;html=1;shape=process;whiteSpace=wrap;rounded=1;size=0.14;arcSize=0;" parent="1" vertex="1">
          <mxGeometry x="667" y="395" width="155" height="90" as="geometry" />
        </mxCell>
        <mxCell id="An7cOaeQkfelgaiPVGqu-30" value="pilihMenu(sc. searchMahasiswa)" style="text;html=1;align=center;verticalAlign=middle;resizable=0;points=[];autosize=1;strokeColor=none;fillColor=none;" parent="1" vertex="1">
          <mxGeometry x="642" y="425" width="200" height="30" as="geometry" />
        </mxCell>
        <mxCell id="An7cOaeQkfelgaiPVGqu-31" value="END" style="strokeWidth=2;html=1;shape=mxgraph.flowchart.terminator;whiteSpace=wrap;" parent="1" vertex="1">
          <mxGeometry x="694.5" y="540" width="100" height="60" as="geometry" />
        </mxCell>
        <mxCell id="SnavFXWCy11FegL9XH4y-17" style="edgeStyle=none;curved=1;rounded=0;orthogonalLoop=1;jettySize=auto;html=1;exitX=0.5;exitY=1;exitDx=0;exitDy=0;fontSize=12;startSize=8;endSize=8;" edge="1" parent="1" source="An7cOaeQkfelgaiPVGqu-35">
          <mxGeometry relative="1" as="geometry">
            <mxPoint x="2160.076923076923" y="1350" as="targetPoint" />
          </mxGeometry>
        </mxCell>
        <mxCell id="An7cOaeQkfelgaiPVGqu-35" value="output &quot;Jumlah SKS (1-3)&lt;span style=&quot;color: rgba(0, 0, 0, 0); font-family: monospace; font-size: 0px; text-align: start; text-wrap-mode: nowrap;&quot;&gt;%3CmxGraphModel%3E%3Croot%3E%3CmxCell%20id%3D%220%22%2F%3E%3CmxCell%20id%3D%221%22%20parent%3D%220%22%2F%3E%3CmxCell%20id%3D%222%22%20value%3D%22output%20%26quot%3BNama%20Mahasiswa%3A%20%26quot%3B%22%20style%3D%22shape%3Dparallelogram%3Bhtml%3D1%3BstrokeWidth%3D2%3Bperimeter%3DparallelogramPerimeter%3BwhiteSpace%3Dwrap%3Brounded%3D1%3BarcSize%3D0%3Bsize%3D0.03125%3B%22%20vertex%3D%221%22%20parent%3D%221%22%3E%3CmxGeometry%20x%3D%222060%22%20y%3D%22555%22%20width%3D%22200%22%20height%3D%2245%22%20as%3D%22geometry%22%2F%3E%3C%2FmxCell%3E%3C%2Froot%3E%3C%2Fm&lt;/span&gt;&quot;" style="shape=parallelogram;html=1;strokeWidth=2;perimeter=parallelogramPerimeter;whiteSpace=wrap;rounded=1;arcSize=0;size=0.03125;" parent="1" vertex="1">
          <mxGeometry x="2060" y="1320" width="200" height="45" as="geometry" />
        </mxCell>
        <mxCell id="An7cOaeQkfelgaiPVGqu-50" style="edgeStyle=orthogonalEdgeStyle;rounded=0;orthogonalLoop=1;jettySize=auto;html=1;exitX=0.5;exitY=1;exitDx=0;exitDy=0;exitPerimeter=0;entryX=0.5;entryY=0;entryDx=0;entryDy=0;" parent="1" source="An7cOaeQkfelgaiPVGqu-39" target="MVi8cVUKgiiV1papQBs0-6" edge="1">
          <mxGeometry relative="1" as="geometry" />
        </mxCell>
        <mxCell id="An7cOaeQkfelgaiPVGqu-39" value="" style="verticalLabelPosition=bottom;verticalAlign=top;html=1;shape=mxgraph.flowchart.on-page_reference;" parent="1" vertex="1">
          <mxGeometry x="1398" y="245" width="20" height="20" as="geometry" />
        </mxCell>
        <mxCell id="An7cOaeQkfelgaiPVGqu-46" style="edgeStyle=orthogonalEdgeStyle;rounded=0;orthogonalLoop=1;jettySize=auto;html=1;exitX=0.5;exitY=1;exitDx=0;exitDy=0;exitPerimeter=0;entryX=0.5;entryY=0;entryDx=0;entryDy=0;entryPerimeter=0;" parent="1" source="MVi8cVUKgiiV1papQBs0-2" target="An7cOaeQkfelgaiPVGqu-39" edge="1">
          <mxGeometry relative="1" as="geometry" />
        </mxCell>
        <mxCell id="An7cOaeQkfelgaiPVGqu-51" style="edgeStyle=orthogonalEdgeStyle;rounded=0;orthogonalLoop=1;jettySize=auto;html=1;exitX=0.5;exitY=0;exitDx=0;exitDy=0;entryX=1;entryY=0.5;entryDx=0;entryDy=0;entryPerimeter=0;" parent="1" source="MVi8cVUKgiiV1papQBs0-46" target="An7cOaeQkfelgaiPVGqu-39" edge="1">
          <mxGeometry relative="1" as="geometry" />
        </mxCell>
        <mxCell id="SnavFXWCy11FegL9XH4y-9" style="edgeStyle=none;curved=1;rounded=0;orthogonalLoop=1;jettySize=auto;html=1;exitX=0;exitY=0.5;exitDx=0;exitDy=0;fontSize=12;startSize=8;endSize=8;" edge="1" parent="1" source="SnavFXWCy11FegL9XH4y-1">
          <mxGeometry relative="1" as="geometry">
            <mxPoint x="1190" y="1493.5555013020833" as="targetPoint" />
            <Array as="points">
              <mxPoint x="550" y="1210" />
            </Array>
          </mxGeometry>
        </mxCell>
        <mxCell id="SnavFXWCy11FegL9XH4y-1" value="break" style="shape=parallelogram;html=1;strokeWidth=2;perimeter=parallelogramPerimeter;whiteSpace=wrap;rounded=1;arcSize=0;size=0;" vertex="1" parent="1">
          <mxGeometry x="930" y="780.25" width="115" height="30" as="geometry" />
        </mxCell>
        <mxCell id="SnavFXWCy11FegL9XH4y-10" style="edgeStyle=none;curved=1;rounded=0;orthogonalLoop=1;jettySize=auto;html=1;exitX=0;exitY=0.5;exitDx=0;exitDy=0;fontSize=12;startSize=8;endSize=8;" edge="1" parent="1" source="SnavFXWCy11FegL9XH4y-2">
          <mxGeometry relative="1" as="geometry">
            <mxPoint x="1190" y="1500" as="targetPoint" />
            <Array as="points">
              <mxPoint x="700" y="1240" />
            </Array>
          </mxGeometry>
        </mxCell>
        <mxCell id="SnavFXWCy11FegL9XH4y-2" value="break" style="shape=parallelogram;html=1;strokeWidth=2;perimeter=parallelogramPerimeter;whiteSpace=wrap;rounded=1;arcSize=0;size=0;" vertex="1" parent="1">
          <mxGeometry x="930" y="926.25" width="115" height="30" as="geometry" />
        </mxCell>
        <mxCell id="SnavFXWCy11FegL9XH4y-12" style="edgeStyle=none;curved=1;rounded=0;orthogonalLoop=1;jettySize=auto;html=1;exitX=0.5;exitY=1;exitDx=0;exitDy=0;fontSize=12;startSize=8;endSize=8;" edge="1" parent="1" source="SnavFXWCy11FegL9XH4y-3">
          <mxGeometry relative="1" as="geometry">
            <mxPoint x="1190" y="1500" as="targetPoint" />
            <Array as="points">
              <mxPoint x="910" y="1380" />
            </Array>
          </mxGeometry>
        </mxCell>
        <mxCell id="SnavFXWCy11FegL9XH4y-3" value="break" style="shape=parallelogram;html=1;strokeWidth=2;perimeter=parallelogramPerimeter;whiteSpace=wrap;rounded=1;arcSize=0;size=0;" vertex="1" parent="1">
          <mxGeometry x="920" y="1067.5" width="115" height="30" as="geometry" />
        </mxCell>
        <mxCell id="SnavFXWCy11FegL9XH4y-19" value="" style="edgeStyle=none;curved=1;rounded=0;orthogonalLoop=1;jettySize=auto;html=1;fontSize=12;startSize=8;endSize=8;" edge="1" parent="1" source="SnavFXWCy11FegL9XH4y-16" target="SnavFXWCy11FegL9XH4y-18">
          <mxGeometry relative="1" as="geometry" />
        </mxCell>
        <mxCell id="SnavFXWCy11FegL9XH4y-16" value="input sks" style="shape=parallelogram;html=1;strokeWidth=2;perimeter=parallelogramPerimeter;whiteSpace=wrap;rounded=1;arcSize=0;size=0.03125;" vertex="1" parent="1">
          <mxGeometry x="2060" y="1400" width="200" height="45" as="geometry" />
        </mxCell>
        <mxCell id="SnavFXWCy11FegL9XH4y-30" style="edgeStyle=orthogonalEdgeStyle;rounded=0;orthogonalLoop=1;jettySize=auto;html=1;exitX=1;exitY=0.5;exitDx=0;exitDy=0;fontSize=12;startSize=8;endSize=8;" edge="1" parent="1" source="SnavFXWCy11FegL9XH4y-18">
          <mxGeometry relative="1" as="geometry">
            <mxPoint x="2410.0000000000005" y="1260" as="targetPoint" />
          </mxGeometry>
        </mxCell>
        <mxCell id="SnavFXWCy11FegL9XH4y-35" value="FALSE" style="edgeLabel;html=1;align=center;verticalAlign=middle;resizable=0;points=[];fontSize=12;" vertex="1" connectable="0" parent="SnavFXWCy11FegL9XH4y-30">
          <mxGeometry x="0.3148" relative="1" as="geometry">
            <mxPoint as="offset" />
          </mxGeometry>
        </mxCell>
        <mxCell id="SnavFXWCy11FegL9XH4y-18" value="IF(sks &amp;lt; 1 || sks &amp;gt; 3)" style="rhombus;whiteSpace=wrap;html=1;" vertex="1" parent="1">
          <mxGeometry x="2095" y="1500" width="130" height="100" as="geometry" />
        </mxCell>
        <mxCell id="SnavFXWCy11FegL9XH4y-25" style="edgeStyle=none;curved=1;rounded=0;orthogonalLoop=1;jettySize=auto;html=1;exitX=0.5;exitY=1;exitDx=0;exitDy=0;exitPerimeter=0;fontSize=12;startSize=8;endSize=8;" edge="1" parent="1" source="SnavFXWCy11FegL9XH4y-23">
          <mxGeometry relative="1" as="geometry">
            <mxPoint x="2160.076923076923" y="890" as="targetPoint" />
          </mxGeometry>
        </mxCell>
        <mxCell id="SnavFXWCy11FegL9XH4y-23" value="" style="verticalLabelPosition=bottom;verticalAlign=top;html=1;shape=mxgraph.flowchart.on-page_reference;" vertex="1" parent="1">
          <mxGeometry x="2151" y="839.25" width="18" height="19" as="geometry" />
        </mxCell>
        <mxCell id="SnavFXWCy11FegL9XH4y-24" style="edgeStyle=none;curved=1;rounded=0;orthogonalLoop=1;jettySize=auto;html=1;exitX=0.5;exitY=1;exitDx=0;exitDy=0;entryX=0.5;entryY=0;entryDx=0;entryDy=0;entryPerimeter=0;fontSize=12;startSize=8;endSize=8;" edge="1" parent="1" source="An7cOaeQkfelgaiPVGqu-11" target="SnavFXWCy11FegL9XH4y-23">
          <mxGeometry relative="1" as="geometry" />
        </mxCell>
        <mxCell id="SnavFXWCy11FegL9XH4y-32" style="edgeStyle=orthogonalEdgeStyle;rounded=0;orthogonalLoop=1;jettySize=auto;html=1;exitX=0.5;exitY=0;exitDx=0;exitDy=0;fontSize=12;startSize=8;endSize=8;" edge="1" parent="1" source="SnavFXWCy11FegL9XH4y-29">
          <mxGeometry relative="1" as="geometry">
            <mxPoint x="2170.0000000000005" y="850" as="targetPoint" />
            <Array as="points">
              <mxPoint x="2410" y="850" />
            </Array>
          </mxGeometry>
        </mxCell>
        <mxCell id="SnavFXWCy11FegL9XH4y-34" value="FALSE" style="edgeLabel;html=1;align=center;verticalAlign=middle;resizable=0;points=[];fontSize=12;" vertex="1" connectable="0" parent="SnavFXWCy11FegL9XH4y-32">
          <mxGeometry x="-0.3235" y="-1" relative="1" as="geometry">
            <mxPoint as="offset" />
          </mxGeometry>
        </mxCell>
        <mxCell id="SnavFXWCy11FegL9XH4y-29" value="Output &quot;SKS yang anda masukkan tidak valid! masukkan (1-3)&quot;" style="shape=parallelogram;html=1;strokeWidth=2;perimeter=parallelogramPerimeter;whiteSpace=wrap;rounded=1;arcSize=0;size=0.03125;" vertex="1" parent="1">
          <mxGeometry x="2310" y="1210" width="200" height="45" as="geometry" />
        </mxCell>
      </root>
    </mxGraphModel>
  </diagram>
  <diagram id="XT8Ytq40xqQ21trT8fMo" name="Page-2">
    <mxGraphModel dx="639" dy="394" grid="0" gridSize="10" guides="1" tooltips="1" connect="1" arrows="1" fold="1" page="0" pageScale="1" pageWidth="4681" pageHeight="3300" math="0" shadow="0">
      <root>
        <mxCell id="0" />
        <mxCell id="1" parent="0" />
      </root>
    </mxGraphModel>
  </diagram>
</mxfile>
